<svg width="24" height="24" viewBox="0 0 24 24" fill="none" xmlns="http://www.w3.org/2000/svg">
<path fill-rule="evenodd" clip-rule="evenodd" d="M12.0471 2.62972C11.1599 2.62505 10.2805 2.79017 9.45948 3.11556C8.63823 3.44106 7.89167 3.92051 7.26279 4.5263C6.63391 5.13209 6.13515 5.85224 5.79524 6.64528C5.45532 7.43832 5.28097 8.28858 5.28222 9.14707L5.28222 9.14822L5.28222 9.96303C5.28222 13.7239 4.467 15.9889 3.68471 17.2963L8.62853 17.2963C8.6293 17.2963 8.63006 17.2963 8.63082 17.2963C8.63159 17.2963 8.63235 17.2963 8.63311 17.2963H15.3674C15.3681 17.2963 15.3689 17.2963 15.3697 17.2963C15.3704 17.2963 15.3712 17.2963 15.372 17.2963L20.3153 17.2963C19.533 15.9889 18.7178 13.7239 18.7178 9.96303V9.23989C18.7178 5.62947 15.7385 2.65722 12.0471 2.62972ZM16.212 18.9259C16.212 20.0065 15.7683 21.0427 14.9784 21.8067C14.1886 22.5708 13.1173 23 12.0002 23C10.8832 23 9.81193 22.5708 9.02207 21.8067C8.23221 21.0427 7.78847 20.0065 7.78847 18.9259L3.68174 18.9259L3.67878 18.9259C3.38356 18.9249 3.09379 18.8489 2.8385 18.7055C2.58322 18.562 2.37139 18.3562 2.22422 18.1087C2.07706 17.8611 1.99974 17.5805 2 17.2949C2.00026 17.0093 2.0781 16.7288 2.22571 16.4815L2.22622 16.4807C2.83366 15.4658 3.59751 13.4939 3.59751 9.96303V9.1488C3.59603 8.07553 3.81404 7.01258 4.23899 6.02115C4.66401 5.02954 5.28766 4.12906 6.074 3.37159C6.86034 2.61412 7.79384 2.01462 8.82073 1.60762C9.84762 1.20061 10.9476 0.994153 12.0573 1.00013L12.059 1.00014C16.7066 1.03419 20.4025 4.76359 20.4025 9.23989V9.96303C20.4025 13.4939 21.1663 15.4658 21.7738 16.4807L21.7743 16.4815C21.9219 16.7288 21.9997 17.0093 22 17.2949C22.0003 17.5805 21.9229 17.8611 21.7758 18.1087C21.6286 18.3562 21.4168 18.562 21.1615 18.7055C20.9062 18.8489 20.6164 18.9249 20.3212 18.9259L20.3183 18.9259L16.212 18.9259ZM9.47318 18.9259C9.47318 19.5742 9.73942 20.196 10.2133 20.6544C10.6873 21.1128 11.33 21.3704 12.0002 21.3704C12.6705 21.3704 13.3132 21.1128 13.7872 20.6544C14.2611 20.196 14.5273 19.5742 14.5273 18.9259H9.47318Z" fill="#B1B3B3"/>
<rect x="13.6851" width="6" height="6" rx="3" fill="#B14653"/>
</svg>
