<svg width="24" height="24" viewBox="0 0 24 24" fill="none" xmlns="http://www.w3.org/2000/svg">
<path fill-rule="evenodd" clip-rule="evenodd" d="M14.1441 1.46425C14.729 1.0519 15.4536 0.905666 16.1469 1.06008C16.5427 1.14824 16.9223 1.37372 17.4104 1.66363C17.4398 1.68112 17.4697 1.69884 17.4999 1.71678C17.5003 1.71698 17.5006 1.71718 17.5009 1.71737C17.5308 1.73511 17.5604 1.75259 17.5895 1.76984C18.078 2.05897 18.458 2.28385 18.7303 2.59182C19.2071 3.13122 19.4461 3.8488 19.3908 4.57513C19.3592 4.98983 19.193 5.40656 18.9792 5.94237C18.9663 5.9747 18.9532 6.00745 18.94 6.04067C18.7978 6.39791 18.8454 6.85197 19.087 7.27887C19.0927 7.28901 19.0984 7.29914 19.1041 7.30925L19.1041 7.3093C19.3436 7.73666 19.7022 8.00527 20.0737 8.0573C20.1083 8.06215 20.1425 8.0669 20.1762 8.07159C20.7349 8.14938 21.1695 8.20989 21.5349 8.38915C22.1751 8.70313 22.6607 9.27447 22.8772 9.96829C23.0007 10.3644 23.0004 10.8148 23 11.3938C22.9999 11.4288 22.9999 11.4641 22.9999 11.5C22.9999 11.5359 22.9999 11.5713 23 11.6062C23.0004 12.1853 23.0007 12.6356 22.8772 13.0318C22.6607 13.7256 22.1751 14.2969 21.5349 14.6109C21.1694 14.7902 20.7349 14.8507 20.1762 14.9285C20.1425 14.9332 20.1083 14.9379 20.0737 14.9428C19.7022 14.9948 19.3436 15.2634 19.1041 15.6908C19.0984 15.7009 19.0927 15.711 19.087 15.7211L19.087 15.7212C18.8454 16.1481 18.7978 16.6021 18.94 16.9593C18.9533 16.9925 18.9663 17.0253 18.9792 17.0576C19.193 17.5934 19.3592 18.0102 19.3908 18.4249C19.4461 19.1512 19.2071 19.8688 18.7303 20.4082C18.458 20.7161 18.0781 20.941 17.5896 21.2301C17.5604 21.2474 17.5309 21.2649 17.5009 21.2826C17.5006 21.2828 17.5003 21.283 17.5 21.2832C17.4697 21.3012 17.4398 21.3189 17.4104 21.3364C16.9223 21.6263 16.5427 21.8518 16.1469 21.9399C15.4536 22.0943 14.729 21.9481 14.1441 21.5357C13.8102 21.3003 13.5419 20.9441 13.197 20.486C13.1761 20.4584 13.1551 20.4304 13.1337 20.4021C12.9032 20.0965 12.4965 19.9114 12.0165 19.9124H12.0164C12.011 19.9124 12.0055 19.9124 12 19.9124C11.9944 19.9124 11.9889 19.9124 11.9834 19.9124H11.9833C11.5035 19.9114 11.0971 20.0963 10.8666 20.4016C10.8665 20.4017 10.8664 20.4018 10.8663 20.4019C10.8449 20.4303 10.8238 20.4583 10.803 20.4859C10.4581 20.944 10.1898 21.3002 9.85585 21.5356C9.27101 21.948 8.54639 22.0942 7.85311 21.9398C7.45726 21.8516 7.07766 21.6262 6.5896 21.3363C6.5603 21.3189 6.53061 21.3012 6.5005 21.2834C6.50036 21.2833 6.50022 21.2832 6.50007 21.2831L6.50004 21.2831C6.46979 21.2652 6.43992 21.2475 6.41046 21.23C5.92194 20.9409 5.54199 20.716 5.26973 20.4081L5.78956 19.9234L5.26973 20.4081C4.79287 19.8687 4.55388 19.1511 4.60918 18.4247C4.64076 18.01 4.80701 17.5933 5.02078 17.0575C5.03367 17.0252 5.04674 16.9924 5.05996 16.9592C5.20214 16.602 5.15458 16.148 4.91305 15.7212C4.90732 15.7111 4.9016 15.7009 4.8959 15.6907C4.65639 15.2634 4.2978 14.9948 3.9263 14.9428C3.89168 14.9379 3.85753 14.9332 3.82383 14.9285C3.2651 14.8507 2.83055 14.7902 2.46505 14.6109L2.76764 13.9602L2.46505 14.6109C1.8249 14.2969 1.33928 13.7256 1.12285 13.0318C0.999271 12.6356 0.999612 12.1853 1.00005 11.6062C1.00008 11.5713 1.0001 11.5359 1.0001 11.5C1.0001 11.4641 1.00008 11.4287 1.00005 11.3938C0.999612 10.8148 0.999271 10.3644 1.12285 9.96829C1.33928 9.27447 1.8249 8.70313 2.46505 8.38915C2.83055 8.20988 3.2651 8.14938 3.82382 8.07159C3.85753 8.0669 3.89168 8.06214 3.9263 8.0573C4.2978 8.00527 4.6564 7.73666 4.8959 7.3093C4.9016 7.29914 4.90732 7.28898 4.91306 7.27883C5.1546 6.85199 5.20216 6.39798 5.05998 6.04079C5.05998 6.04079 5.05998 6.04079 5.05998 6.04079C5.05992 6.04064 5.05986 6.04049 5.0598 6.04034C5.04664 6.00728 5.03363 5.97468 5.02079 5.9425C4.80703 5.40669 4.64077 4.98995 4.6092 4.57525C4.55389 3.84892 4.79289 3.13134 5.26974 2.59194C5.54201 2.28397 5.92195 2.0591 6.41047 1.76996C6.43994 1.75252 6.4698 1.73485 6.50006 1.71691C6.53032 1.69897 6.56016 1.68124 6.5896 1.66376C7.07767 1.37384 7.45728 1.14836 7.85312 1.0602C8.54641 0.905789 9.27102 1.05202 9.85587 1.46437C10.1898 1.69981 10.4581 2.05604 10.803 2.51406C10.8239 2.54169 10.8449 2.56969 10.8663 2.59806C11.0968 2.90355 11.5034 3.08865 11.9834 3.08767L11.9834 3.08767C11.9889 3.08766 11.9944 3.08766 12 3.08766C12.0055 3.08766 12.0109 3.08766 12.0164 3.08767C12.4964 3.08864 12.9032 2.9035 13.1337 2.59794C13.1338 2.59777 13.1339 2.59761 13.134 2.59745C13.1553 2.56925 13.1763 2.54141 13.197 2.51394C13.5419 2.05592 13.8102 1.69968 14.1441 1.46425L14.5344 2.04801L14.1441 1.46425ZM10.3117 19.9606L10.3121 19.961L10.3117 19.9606ZM16.7975 2.9655C16.1765 2.59729 16.0014 2.50332 15.8493 2.46944C15.5341 2.39925 15.2048 2.46572 14.9389 2.65315C14.8106 2.74365 14.6831 2.89872 14.2438 3.48112C14.2438 3.48112 14.2438 3.48113 14.2437 3.48113C14.2436 3.48133 14.2434 3.48154 14.2433 3.48174C13.6859 4.22014 12.8198 4.53141 12.0136 4.52979C12.0091 4.52978 12.0045 4.52978 12 4.52978L11.9941 4.52978C11.9915 4.52978 11.9888 4.52979 11.9862 4.52979C11.1799 4.53144 10.3135 4.22003 9.75625 3.48125L10.3113 3.03966L9.75625 3.48125C9.3169 2.89884 9.18944 2.74378 9.06108 2.65327L9.45533 2.06353L9.06108 2.65327C8.79524 2.46584 8.46587 2.39937 8.15074 2.46956C7.99857 2.50345 7.82346 2.59745 7.20218 2.96582C6.5809 3.33419 6.41408 3.44293 6.30942 3.56132L5.78958 3.07663L6.30942 3.56132C6.09266 3.80651 5.98403 4.13268 6.00917 4.46283C6.02131 4.62224 6.08834 4.81313 6.3598 5.49509C6.70454 6.36112 6.53218 7.28771 6.12718 8.00343L5.52012 7.64113L6.12717 8.00343C6.12242 8.01183 6.11769 8.02024 6.11296 8.02867C5.71167 8.74473 5.01737 9.35997 4.11603 9.48619C3.40522 9.58574 3.21073 9.62156 3.07023 9.69048C2.77925 9.83319 2.55852 10.0929 2.46014 10.4083C2.41263 10.5605 2.40435 10.7633 2.40435 11.5C2.40435 12.2368 2.41263 12.4395 2.46014 12.5918L1.79149 12.8118L2.46014 12.5918C2.55852 12.9072 2.77925 13.1669 3.07023 13.3096C3.21073 13.3785 3.40522 13.4143 4.11603 13.5139C5.01737 13.6401 5.71167 14.2553 6.11296 14.9714L6.11297 14.9714C6.11768 14.9798 6.12242 14.9882 6.12717 14.9966C6.53216 15.7123 6.70451 16.6389 6.35978 17.5049C6.08832 18.1869 6.02129 18.3778 6.00915 18.5372C5.98401 18.8673 6.09264 19.1935 6.3094 19.4387C6.41406 19.5571 6.58089 19.6658 7.20216 20.0342C7.20217 20.0342 7.20219 20.0342 7.2022 20.0342C7.82345 20.4026 7.99856 20.4966 8.15071 20.5304C8.46586 20.6006 8.79522 20.5342 9.06107 20.3467C9.18938 20.2563 9.3168 20.1013 9.7558 19.5193C9.75594 19.5191 9.75609 19.5189 9.75623 19.5187C10.3135 18.78 11.1798 18.4686 11.9861 18.4703L11.9847 19.1913L11.986 18.4703C11.986 18.4703 11.986 18.4703 11.9861 18.4703C11.9908 18.4703 11.9954 18.4703 12 18.4703C12.0045 18.4703 12.0091 18.4703 12.0137 18.4703L12.0151 19.1913L12.0138 18.4703C12.8201 18.4686 13.6865 18.7801 14.2438 19.5189C14.6831 20.1013 14.8106 20.2563 14.9389 20.3469C15.2048 20.5343 15.5341 20.6008 15.8493 20.5306C16.0013 20.4967 16.1763 20.4028 16.7964 20.0352C16.7969 20.0349 16.7974 20.0346 16.7979 20.0343C17.4191 19.6659 17.5859 19.5572 17.6906 19.4388C17.9074 19.1936 18.016 18.8674 17.9908 18.5373C17.9787 18.3779 17.9117 18.187 17.6402 17.505C17.2955 16.639 17.4678 15.7123 17.8728 14.9966L18.4799 15.3589L17.8728 14.9966C17.8728 14.9966 17.8728 14.9966 17.8728 14.9966C17.875 14.9927 17.8772 14.9889 17.8794 14.985C17.8819 14.9805 17.8845 14.9759 17.887 14.9714C18.2883 14.2553 18.9826 13.6401 19.884 13.5139C20.5948 13.4143 20.7893 13.3785 20.9298 13.3096C21.2207 13.1669 21.4415 12.9072 21.5399 12.5918C21.5874 12.4395 21.5957 12.2368 21.5957 11.5C21.5957 10.7633 21.5874 10.5605 21.5399 10.4083C21.4415 10.0929 21.2207 9.83319 20.9298 9.69048C20.7893 9.62156 20.5948 9.58574 19.884 9.48619C18.9826 9.35997 18.2884 8.74475 17.8871 8.02871C17.8847 8.02444 17.8823 8.02018 17.8799 8.01594C17.8775 8.01177 17.8752 8.0076 17.8728 8.00346C17.4678 7.28769 17.2954 6.36105 17.6402 5.49497C17.9117 4.81301 17.9787 4.62212 17.9908 4.4627C18.016 4.13255 17.9073 3.80638 17.6906 3.5612L18.2104 3.07651L17.6906 3.5612C17.5859 3.44281 17.4191 3.33407 16.7978 2.9657C16.7978 2.9657 16.7978 2.9657 16.7978 2.9657C16.7977 2.96563 16.7976 2.96557 16.7975 2.9655ZM12 9.33679C10.8367 9.33679 9.89363 10.3053 9.89363 11.5C9.89363 12.6947 10.8367 13.6631 12 13.6631C13.1633 13.6631 14.1064 12.6947 14.1064 11.5C14.1064 10.3053 13.1633 9.33679 12 9.33679ZM8.48939 11.5C8.48939 9.50881 10.0611 7.89467 12 7.89467C13.9389 7.89467 15.5106 9.50882 15.5106 11.5C15.5106 13.4911 13.9389 15.1053 12 15.1053C10.0611 15.1053 8.48939 13.4911 8.48939 11.5Z" fill="#090F0F"/>
</svg>
