<svg width="25" height="24" viewBox="0 0 25 24" fill="none" xmlns="http://www.w3.org/2000/svg">
<path fill-rule="evenodd" clip-rule="evenodd" d="M19.4685 5.09912L19.4877 5.09912H20.3815L20.4007 5.09912C20.6579 5.09911 20.8804 5.0991 21.0638 5.11409C21.2576 5.12992 21.4513 5.16495 21.638 5.26008C21.9159 5.40166 22.1418 5.62757 22.2834 5.90544C22.3785 6.09214 22.4135 6.28588 22.4294 6.47967C22.4443 6.66309 22.4443 6.8856 22.4443 7.14274V7.16191V7.53759C22.6629 7.56069 22.8704 7.60649 23.0681 7.70718C23.4072 7.87998 23.6829 8.1557 23.8557 8.49483C23.9686 8.71635 24.0125 8.95029 24.0328 9.19838C24.0522 9.43604 24.0522 9.72677 24.0522 10.0743V10.0945V11.5542V11.5744C24.0522 11.9219 24.0522 12.2126 24.0328 12.4503C24.0125 12.6984 23.9686 12.9323 23.8557 13.1539C23.6829 13.493 23.4072 13.7687 23.0681 13.9415C22.8465 14.0544 22.6126 14.0983 22.3645 14.1185C22.1269 14.138 21.8361 14.138 21.4886 14.1379H21.4684H18.4009H18.3807C18.0332 14.138 17.7425 14.138 17.5048 14.1185C17.2567 14.0983 17.0228 14.0544 16.8013 13.9415C16.4621 13.7687 16.1864 13.493 16.0136 13.1539C15.9007 12.9323 15.8569 12.6984 15.8366 12.4503C15.8172 12.2126 15.8172 11.9219 15.8172 11.5744L15.8172 11.5542V10.0945L15.8172 10.0742C15.8172 9.72677 15.8172 9.43604 15.8366 9.19838C15.8569 8.95029 15.9007 8.71635 16.0136 8.49483C16.1864 8.1557 16.4621 7.87998 16.8013 7.70718C16.9989 7.6065 17.2063 7.5607 17.4249 7.5376V7.16191L17.4249 7.14273V7.14273V7.14272C17.4249 6.88559 17.4249 6.66308 17.4399 6.47967C17.4557 6.28588 17.4907 6.09214 17.5859 5.90544C17.7274 5.62757 17.9533 5.40166 18.2312 5.26008C18.4179 5.16495 18.6117 5.12992 18.8055 5.11409C18.9889 5.0991 19.2114 5.09911 19.4685 5.09912H19.4685ZM21.4443 7.16191V7.51074H18.4249V7.16191C18.4249 6.88015 18.4253 6.6989 18.4365 6.56111C18.4473 6.42915 18.4655 6.38166 18.4769 6.35943C18.5226 6.26972 18.5955 6.19679 18.6852 6.15108C18.7074 6.13976 18.7549 6.12155 18.8869 6.11077C19.0247 6.09951 19.2059 6.09912 19.4877 6.09912H20.3815C20.6633 6.09912 20.8446 6.09951 20.9823 6.11077C21.1143 6.12155 21.1618 6.13976 21.184 6.15108C21.2737 6.19679 21.3467 6.26972 21.3924 6.35943C21.4037 6.38166 21.4219 6.42915 21.4327 6.56111C21.4439 6.6989 21.4443 6.88015 21.4443 7.16191ZM17.5862 8.52682C17.4 8.54204 17.3123 8.56912 17.2553 8.59819C17.1043 8.67511 16.9815 8.79785 16.9046 8.94882C16.8756 9.00587 16.8485 9.09357 16.8333 9.27981C16.8176 9.47189 16.8172 9.72153 16.8172 10.0945V11.5542C16.8172 11.9272 16.8176 12.1768 16.8333 12.3689C16.8485 12.5551 16.8756 12.6428 16.9046 12.6999C16.9815 12.8508 17.1043 12.9736 17.2553 13.0505C17.3123 13.0796 17.4 13.1066 17.5862 13.1219C17.7783 13.1376 18.028 13.1379 18.4009 13.1379H21.4684C21.8414 13.1379 22.091 13.1376 22.2831 13.1219C22.4693 13.1066 22.557 13.0796 22.6141 13.0505C22.765 12.9736 22.8878 12.8508 22.9647 12.6999C22.9938 12.6428 23.0209 12.5551 23.0361 12.3689C23.0518 12.1768 23.0522 11.9272 23.0522 11.5542V10.0945C23.0522 9.72152 23.0518 9.47189 23.0361 9.27981C23.0209 9.09357 22.9938 9.00587 22.9647 8.94882C22.8878 8.79785 22.765 8.67511 22.6141 8.59819C22.557 8.56912 22.4693 8.54204 22.2831 8.52682C22.091 8.51113 21.8414 8.51074 21.4684 8.51074H18.4009C18.028 8.51074 17.7783 8.51113 17.5862 8.52682ZM20.4347 10.4224C20.4347 10.1462 20.2108 9.92236 19.9347 9.92236C19.6585 9.92236 19.4347 10.1462 19.4347 10.4224V11.2262C19.4347 11.5024 19.6585 11.7262 19.9347 11.7262C20.2108 11.7262 20.4347 11.5024 20.4347 11.2262V10.4224Z" fill="#B1B3B3"/>
<path fill-rule="evenodd" clip-rule="evenodd" d="M9 2.75C7.20507 2.75 5.75 4.20507 5.75 6C5.75 7.79493 7.20507 9.25 9 9.25C10.7949 9.25 12.25 7.79493 12.25 6C12.25 4.20507 10.7949 2.75 9 2.75ZM4.25 6C4.25 3.37665 6.37665 1.25 9 1.25C11.6234 1.25 13.75 3.37665 13.75 6C13.75 8.62335 11.6234 10.75 9 10.75C6.37665 10.75 4.25 8.62335 4.25 6ZM0.25 18.8C0.25 15.7348 2.73482 13.25 5.8 13.25H12.2C15.2652 13.25 17.75 15.7348 17.75 18.8C17.75 20.9815 15.9815 22.75 13.8 22.75H4.2C2.01847 22.75 0.25 20.9815 0.25 18.8ZM5.8 14.75C3.56325 14.75 1.75 16.5632 1.75 18.8C1.75 20.1531 2.8469 21.25 4.2 21.25H13.8C15.1531 21.25 16.25 20.1531 16.25 18.8C16.25 16.5632 14.4368 14.75 12.2 14.75H5.8Z" fill="#B1B3B3"/>
</svg>
