<svg width="24" height="24" viewBox="0 0 24 24" fill="none" xmlns="http://www.w3.org/2000/svg">
<path fill-rule="evenodd" clip-rule="evenodd" d="M9 2.75C7.20507 2.75 5.75 4.20507 5.75 6C5.75 7.79493 7.20507 9.25 9 9.25C10.7949 9.25 12.25 7.79493 12.25 6C12.25 4.20507 10.7949 2.75 9 2.75ZM4.25 6C4.25 3.37665 6.37665 1.25 9 1.25C11.6234 1.25 13.75 3.37665 13.75 6C13.75 8.62335 11.6234 10.75 9 10.75C6.37665 10.75 4.25 8.62335 4.25 6ZM0.25 18.8C0.25 15.7348 2.73482 13.25 5.8 13.25H12.2C15.2652 13.25 17.75 15.7348 17.75 18.8C17.75 20.9815 15.9815 22.75 13.8 22.75H4.2C2.01847 22.75 0.25 20.9815 0.25 18.8ZM5.8 14.75C3.56325 14.75 1.75 16.5632 1.75 18.8C1.75 20.1531 2.8469 21.25 4.2 21.25H13.8C15.1531 21.25 16.25 20.1531 16.25 18.8C16.25 16.5632 14.4368 14.75 12.2 14.75H5.8Z" fill="#B1B3B3"/>
<path fill-rule="evenodd" clip-rule="evenodd" d="M17.4471 13.3055C17.3361 13.2814 17.2241 13.2168 17.0001 13.0875C16.7762 12.9582 16.6642 12.8935 16.5878 12.8094C16.4531 12.661 16.3856 12.4636 16.4012 12.2638C16.41 12.1505 16.459 12.0308 16.5568 11.7914C16.6513 11.5603 16.6086 11.2994 16.4831 11.0836L16.4766 11.0722C16.3522 10.8561 16.1478 10.689 15.9007 10.6553C15.6445 10.6204 15.5164 10.6029 15.4138 10.5539C15.233 10.4676 15.0958 10.3104 15.0347 10.1196C15 10.0113 15 9.88202 15 9.62341C15 9.3648 15 9.2355 15.0347 9.12727C15.0958 8.93641 15.233 8.77925 15.4138 8.69288C15.5164 8.6439 15.6445 8.62643 15.9008 8.59149C16.1478 8.5578 16.3522 8.39073 16.4766 8.17459L16.4829 8.16377C16.6084 7.94773 16.6511 7.68667 16.5566 7.45538C16.4587 7.216 16.4098 7.09631 16.4009 6.98301C16.3853 6.78321 16.4528 6.58582 16.5875 6.43744C16.6639 6.3533 16.7759 6.28865 16.9999 6.15934C17.2238 6.03004 17.3358 5.96539 17.4469 5.9413C17.6427 5.89882 17.8474 5.93905 18.0127 6.05248C18.1064 6.1168 18.1855 6.21902 18.3439 6.42346C18.4969 6.62094 18.7441 6.71485 18.994 6.71436L18.9998 6.71435L19.0058 6.71436C19.2557 6.71486 19.503 6.62093 19.6561 6.42337C19.8145 6.21893 19.8936 6.11671 19.9873 6.05239C20.1526 5.93896 20.3573 5.89873 20.5531 5.94121C20.6642 5.9653 20.7762 6.02995 21.0001 6.15925C21.2241 6.28856 21.3361 6.35321 21.4125 6.43735C21.5472 6.58573 21.6147 6.78312 21.5991 6.98292C21.5902 7.09622 21.5413 7.21591 21.4434 7.45529C21.3488 7.68683 21.3915 7.94816 21.5171 8.16446L21.5228 8.17417C21.6473 8.39052 21.8519 8.55776 22.0992 8.59149C22.3555 8.62643 22.4836 8.6439 22.5862 8.69288C22.767 8.77925 22.9042 8.93641 22.9653 9.12727C23 9.2355 23 9.3648 23 9.62341C23 9.88202 23 10.0113 22.9653 10.1196C22.9042 10.3104 22.767 10.4676 22.5862 10.5539C22.4836 10.6029 22.3555 10.6204 22.0992 10.6553C21.8519 10.6891 21.6473 10.8563 21.5228 11.0726L21.5169 11.0829C21.3913 11.299 21.3486 11.5601 21.4432 11.7915C21.541 12.0309 21.59 12.1506 21.5988 12.2639C21.6144 12.4637 21.5469 12.6611 21.4122 12.8094C21.3358 12.8936 21.2238 12.9582 20.9999 13.0875C20.7759 13.2168 20.6639 13.2815 20.5529 13.3056C20.357 13.3481 20.1523 13.3078 19.9871 13.1944C19.8934 13.1301 19.8142 13.0279 19.6558 12.8234C19.5028 12.6259 19.2556 12.532 19.0057 12.5325L18.9998 12.5325L18.994 12.5325C18.7443 12.532 18.4971 12.6259 18.3442 12.8233C18.1858 13.0278 18.1066 13.13 18.0129 13.1943C17.8477 13.3078 17.643 13.348 17.4471 13.3055ZM19.0002 10.7143C19.6027 10.7143 20.0911 10.2259 20.0911 9.62339C20.0911 9.0209 19.6027 8.53248 19.0002 8.53248C18.3977 8.53248 17.9093 9.0209 17.9093 9.62339C17.9093 10.2259 18.3977 10.7143 19.0002 10.7143Z" stroke="#B1B3B3" stroke-linecap="round" stroke-linejoin="round"/>
</svg>
